<svg id="Слой_1" data-name="Слой 1" xmlns="http://www.w3.org/2000/svg" viewBox="0 0 18 19.05"><defs><style>.cls-1{fill:#1d1d1b;}</style></defs><title>arrow_right_1_black</title><path class="cls-1" d="M18,9.53a1.51,1.51,0,0,1-.45,1.11l-8,8a1.58,1.58,0,0,1-2.21,0l-.92-.92a1.56,1.56,0,0,1,0-2.23L10,11.87H1.43a1.3,1.3,0,0,1-1-.46A1.63,1.63,0,0,1,0,10.31V8.74A1.63,1.63,0,0,1,.4,7.64a1.3,1.3,0,0,1,1-.46H10L6.46,3.58A1.45,1.45,0,0,1,6,2.48a1.45,1.45,0,0,1,.46-1.1L7.37.46a1.55,1.55,0,0,1,2.21,0l8,8A1.45,1.45,0,0,1,18,9.53Z"/></svg>