<svg id="Слой_1" data-name="Слой 1" xmlns="http://www.w3.org/2000/svg" viewBox="0 0 38 38"><defs><style>.cls-1{fill:#fff0dd;}</style></defs><title>Facebook</title><path class="cls-1" d="M19,38A19,19,0,1,1,38,19,19,19,0,0,1,19,38ZM19,2A17,17,0,1,0,36,19,17,17,0,0,0,19,2Z"/><path class="cls-1" d="M16.1,28V19.77H13.32v-3.2H16.1V14.22a5,5,0,0,1,.3-1.81,3.69,3.69,0,0,1,.83-1.33,3.37,3.37,0,0,1,1.29-.8A4.9,4.9,0,0,1,20.21,10q.88,0,1.56,0a6.36,6.36,0,0,1,.9.1V13H21q-1,0-1.29.43a2,2,0,0,0-.29,1.12v2h3.16l-.42,3.2H19.41V28Z"/></svg>