<svg id="Слой_1" data-name="Слой 1" xmlns="http://www.w3.org/2000/svg" viewBox="0 0 38 38"><defs><style>.cls-1{fill:#fff0dd;}</style></defs><title>C_INST</title><path class="cls-1" d="M19,38A19,19,0,1,1,38,19,19,19,0,0,1,19,38ZM19,2A17,17,0,1,0,36,19,17,17,0,0,0,19,2Z"/><path class="cls-1" d="M21.69,9l1.42,0a10.25,10.25,0,0,1,1.39.15,6.28,6.28,0,0,1,1,.28,6.85,6.85,0,0,1,.95.49,4.78,4.78,0,0,1,.85.68,5,5,0,0,1,.69.86,5.8,5.8,0,0,1,.48.94,6.24,6.24,0,0,1,.29,1,8.11,8.11,0,0,1,.14,1.4q0,.8.06,1.43T29,19q0,2.05,0,2.69t0,1.42a10.25,10.25,0,0,1-.15,1.39,6.28,6.28,0,0,1-.28,1,6.85,6.85,0,0,1-.49.95,4.79,4.79,0,0,1-.68.85,5,5,0,0,1-.86.69,5.83,5.83,0,0,1-.94.48,6.24,6.24,0,0,1-1,.29,8.12,8.12,0,0,1-1.4.14L21.68,29q-.63,0-2.68,0t-2.69,0l-1.42,0a10.28,10.28,0,0,1-1.39-.15,6.3,6.3,0,0,1-1-.28,6.85,6.85,0,0,1-.95-.49,4.78,4.78,0,0,1-.85-.68,4.94,4.94,0,0,1-.69-.86,5.76,5.76,0,0,1-.48-.94,6.23,6.23,0,0,1-.29-1,8.08,8.08,0,0,1-.14-1.4q0-.8-.06-1.43T9,19q0-2.05,0-2.69t0-1.42a10.18,10.18,0,0,1,.15-1.39,6.27,6.27,0,0,1,.28-1,6.78,6.78,0,0,1,.49-.95,4.76,4.76,0,0,1,.68-.85,5,5,0,0,1,.86-.69,5.78,5.78,0,0,1,.94-.48,6.23,6.23,0,0,1,1-.29,8.1,8.1,0,0,1,1.4-.14L16.32,9Q16.95,9,19,9T21.69,9Zm-5.32,1.8-1.43,0a7.06,7.06,0,0,0-1.16.14,5,5,0,0,0-.71.21,2.63,2.63,0,0,0-.61.3,3.63,3.63,0,0,0-.53.44,3.48,3.48,0,0,0-.42.51,3.11,3.11,0,0,0-.32.62,6.46,6.46,0,0,0-.2.69A6.18,6.18,0,0,0,10.88,15q0,.8-.06,1.41t0,2.62q0,2,0,2.64t0,1.43A7,7,0,0,0,11,24.22a5,5,0,0,0,.21.71,2.63,2.63,0,0,0,.3.61,3.6,3.6,0,0,0,.44.53,3.47,3.47,0,0,0,.51.42,3.11,3.11,0,0,0,.63.32,6.38,6.38,0,0,0,.69.2,6.17,6.17,0,0,0,1.18.12l1.41.06q.61,0,2.62,0t2.64,0l1.43,0A7,7,0,0,0,24.22,27a5,5,0,0,0,.71-.21,2.64,2.64,0,0,0,.61-.3,3.62,3.62,0,0,0,.53-.44,3.49,3.49,0,0,0,.42-.51,3.14,3.14,0,0,0,.32-.63,6.52,6.52,0,0,0,.2-.69A6.22,6.22,0,0,0,27.12,23q0-.8.06-1.41t0-2.62q0-2,0-2.64t0-1.43A7.07,7.07,0,0,0,27,13.78a5,5,0,0,0-.21-.71,2.64,2.64,0,0,0-.3-.61,3.65,3.65,0,0,0-.44-.53,3.5,3.5,0,0,0-.51-.42,3.14,3.14,0,0,0-.62-.32,6.57,6.57,0,0,0-.69-.2A6.23,6.23,0,0,0,23,10.88l-1.41-.06L19,10.8Q17,10.8,16.36,10.83ZM21,14.25A5,5,0,0,1,23.75,17a5.14,5.14,0,0,1,0,4A5,5,0,0,1,21,23.75a5.14,5.14,0,0,1-4,0A5,5,0,0,1,14.25,21a5.14,5.14,0,0,1,0-4A5,5,0,0,1,17,14.25a5.14,5.14,0,0,1,4,0Zm.36,7.11a3.35,3.35,0,1,0-4.75-4.73,3.35,3.35,0,1,0,4.75,4.73Zm3.81-8.55a1.15,1.15,0,0,0-.83-.33,1.19,1.19,0,0,0-.86.34,1.12,1.12,0,0,0-.35.83,1.15,1.15,0,0,0,.36.86,1.18,1.18,0,0,0,.85.35,1.09,1.09,0,0,0,.84-.36,1.22,1.22,0,0,0,.33-.85A1.12,1.12,0,0,0,25.18,12.81Z"/></svg>