<svg id="Слой_1" data-name="Слой 1" xmlns="http://www.w3.org/2000/svg" viewBox="0 0 38 38"><defs><style>.cls-1{fill:#fff0dd;}</style></defs><title>C_VK</title><path class="cls-1" d="M19,38A19,19,0,1,1,38,19,19,19,0,0,1,19,38ZM19,2A17,17,0,1,0,36,19,17,17,0,0,0,19,2Z"/><path class="cls-1" d="M29.17,23.56a1.21,1.21,0,0,1,.24.71q-.12.87-1.67.65a4.4,4.4,0,0,0-2.24.08h-.08a3.1,3.1,0,0,1-1.37-.64,8.89,8.89,0,0,1-1-1,9.06,9.06,0,0,1-.67-.77.86.86,0,0,0-.83-.41q-.67.1-.61,1a2.24,2.24,0,0,1-.24,1.35q-.22.41-1,.42a14.16,14.16,0,0,1-1.46-.05,6.31,6.31,0,0,1-3.34-1.24,14.19,14.19,0,0,1-2.16-2.18,1.28,1.28,0,0,1-.16-.19l-.12-.17L12.35,21a.1.1,0,0,1,0-.05l-.12-.14a.52.52,0,0,1-.08-.14l-.06-.07a.1.1,0,0,1,0-.05.62.62,0,0,1-.1-.13l-.1-.15a0,0,0,0,1-.05,0l0-.05L11.64,20a1.62,1.62,0,0,0-.12-.19l-.12-.19-.12-.17-.06-.07a.1.1,0,0,1,0-.05.54.54,0,0,1-.1-.14A.55.55,0,0,0,11,19a.13.13,0,0,0,0-.07.1.1,0,0,1,0-.05.54.54,0,0,1-.1-.14.55.55,0,0,0-.1-.14.13.13,0,0,0,0-.07.1.1,0,0,1,0-.05q-.37-.61-.71-1.25t-.67-1.31q-.24-.49-.49-1a2.68,2.68,0,0,1-.24-1.14,1.35,1.35,0,0,1,.87-.25h1.08l1.12,0a2,2,0,0,1,1,.15,1.21,1.21,0,0,1,.39.56q.2.46.39.78a9.19,9.19,0,0,0,.52,1.07l.54.93.07.09.05.07s0,0,0,.05l0,0a.1.1,0,0,0,0,.07l.05.05,0,0a.36.36,0,0,1,.05.1.13.13,0,0,0,0,.06l0,0,.07.1a.36.36,0,0,1,.05.1l.52.68a.67.67,0,0,0,.66.34q.37-.06.45-.75a10.78,10.78,0,0,0,.08-1.24V16.7q0-.65,0-1.28a2.31,2.31,0,0,0-.22-1,.77.77,0,0,0-.46-.4,2.33,2.33,0,0,1-.6-.29,1.27,1.27,0,0,1,.95-.65A8.54,8.54,0,0,1,17.9,13q.73,0,1.6,0a1.29,1.29,0,0,1,1.13.49,2.09,2.09,0,0,1,.21,1.31,12.58,12.58,0,0,0-.09,1.45.25.25,0,0,0,0,.14v.75s0,0,0,0v.2a0,0,0,0,0,0,0v.45h0v.15a0,0,0,0,1,0,0v.08l0,0v.08h0v.08h0v0a0,0,0,0,0,0,0v0s0,0,0,0a0,0,0,0,1,0,0l0,0s0,0,0,0h0v0h.05l0,0a1,1,0,0,0,.65-.37q.24-.31.45-.61l.07-.1.05-.06s0,0,0,0a.12.12,0,0,1,0-.08l.05-.06,0,0a.08.08,0,0,1,0-.05l0,0s0,0,0-.05a0,0,0,0,0,0,0s0,0,0,0l.07-.09a.56.56,0,0,0,.05-.11l.06-.07a.1.1,0,0,0,0-.05l.06-.07a.1.1,0,0,0,0-.05q.24-.41.47-.84T24,15q.16-.35.36-.82t.46-.56a2.52,2.52,0,0,1,1.12-.13q.65.05,1.28.05l1.27,0q.74,0,.93.35a1.25,1.25,0,0,1-.14.91,8.59,8.59,0,0,1-.39.8q-.41.61-.8,1.11l-.78,1a.2.2,0,0,0-.05.07l0,.05s0,0,0,0a0,0,0,0,0-.05,0l0,.05s0,0,0,.05a0,0,0,0,0,0,0l-.05.05,0,0-.07.07-.05.05-.53.72a1.34,1.34,0,0,0-.28.86,1,1,0,0,0,.31.6l.51.5q.59.55,1,1a9.08,9.08,0,0,1,.88,1A7.5,7.5,0,0,1,29.17,23.56Z"/></svg>