<svg id="Слой_1" data-name="Слой 1" xmlns="http://www.w3.org/2000/svg" viewBox="0 0 17.59 18"><defs><style>.cls-1{fill:#3c3c3c;}</style></defs><title>Contacts1</title><path class="cls-1" d="M12.21.71a8.91,8.91,0,0,1,4.68,4.68,8.46,8.46,0,0,1,.7,3.42,8.46,8.46,0,0,1-.7,3.42,8.91,8.91,0,0,1-4.68,4.68,8.47,8.47,0,0,1-3.42.7,8.47,8.47,0,0,1-3.42-.7A8.91,8.91,0,0,1,.7,12.23,8.46,8.46,0,0,1,0,8.81,8.46,8.46,0,0,1,.7,5.39,8.91,8.91,0,0,1,5.38.71,8.46,8.46,0,0,1,8.79,0,8.46,8.46,0,0,1,12.21.71ZM8.79.76a7.9,7.9,0,0,0-3.13.63A8,8,0,0,0,1.37,5.68,7.9,7.9,0,0,0,.74,8.81a7.9,7.9,0,0,0,.63,3.13,8,8,0,0,0,4.29,4.29,7.9,7.9,0,0,0,3.13.63,7.9,7.9,0,0,0,3.13-.63,8,8,0,0,0,4.29-4.29,7.9,7.9,0,0,0,.63-3.13,7.9,7.9,0,0,0-.63-3.13,8,8,0,0,0-4.29-4.29A7.9,7.9,0,0,0,8.79.76ZM2.56,6.61a.57.57,0,0,1,.3.08.74.74,0,0,1,.2.16l.23.34a.4.4,0,0,0,.37.15H4a.91.91,0,0,1,.41.09,1.33,1.33,0,0,1,.34.25A1.44,1.44,0,0,1,5,8a.88.88,0,0,1,.1.43v1.1a1.68,1.68,0,0,0,.07.5.28.28,0,0,0,.29.22h.74a.85.85,0,0,1,.41.1,1.85,1.85,0,0,1,.34.24,1.87,1.87,0,0,1,.24.34.85.85,0,0,1,.1.41V15a.38.38,0,0,0,0,.22.33.33,0,0,0,.11.09.64.64,0,0,0,.21.05.33.33,0,0,1,.27.11.4.4,0,0,1,.09.25A.44.44,0,0,1,8,16a.32.32,0,0,1-.27.12A1.55,1.55,0,0,1,7.16,16a1.1,1.1,0,0,1-.39-.35A1,1,0,0,1,6.6,15V11.37a.38.38,0,0,0-.09-.25A.33.33,0,0,0,6.23,11H5.5A1,1,0,0,1,5,10.85a1,1,0,0,1-.36-.38A1.53,1.53,0,0,1,4.44,10a2.62,2.62,0,0,1,0-.46V8.45a.37.37,0,0,0-.09-.26A.4.4,0,0,0,4,8.07H3.3a.5.5,0,0,1-.49-.36q-.15-.36-.35-.36H1.84a.34.34,0,0,1-.28-.12A.41.41,0,0,1,1.46,7a.38.38,0,0,1,.09-.25.35.35,0,0,1,.28-.11Zm8.79-5.14a.37.37,0,0,1,.15,0,.28.28,0,0,1,.11.09,2.55,2.55,0,0,1,.41.52,3.29,3.29,0,0,1,.29.53,1.63,1.63,0,0,1,.14.67,1.28,1.28,0,0,1-.08.44,3.83,3.83,0,0,1-.18.42q-.12.22-.26.45l-.27.45-.27.41c-.09.14-.16.26-.21.38a1,1,0,0,0-.15.33.21.21,0,0,0,.09.26l.35.11a2.49,2.49,0,0,0,.61.06,3.83,3.83,0,0,1,.77.07,2,2,0,0,1,.57.21,1.77,1.77,0,0,1,.33.27,2.86,2.86,0,0,1,.21.27.41.41,0,0,0,.29.1l.43,0,.44.05a2.65,2.65,0,0,1,.42.1l.19.09a.73.73,0,0,1,.19.14,1.09,1.09,0,0,1,.15.23.62.62,0,0,1,.06.27,1.19,1.19,0,0,1-.25.74,2.51,2.51,0,0,1-.61.57,3.08,3.08,0,0,1-.8.38,3,3,0,0,1-.92.14,2.51,2.51,0,0,0-.61.06,1.16,1.16,0,0,0-.33.13c-.08,0-.13.07-.14.09a.25.25,0,0,0,0,.09,1,1,0,0,1-.09.42,1.19,1.19,0,0,1-.23.33,1.3,1.3,0,0,1-.34.25,1,1,0,0,1-.43.09.4.4,0,0,0-.27.09.29.29,0,0,0-.09.27,2.6,2.6,0,0,0,.07.34,2.48,2.48,0,0,0,.29.67,5.39,5.39,0,0,0,.62.79,4.42,4.42,0,0,0,1,.81.33.33,0,0,1,.1.51.3.3,0,0,1-.48.13,5,5,0,0,1-1.19-.93,6.36,6.36,0,0,1-.73-.94,3.74,3.74,0,0,1-.36-.8,2.16,2.16,0,0,1-.1-.58,1,1,0,0,1,.09-.42,1.43,1.43,0,0,1,.58-.58,1,1,0,0,1,.42-.09.49.49,0,0,0,.27-.07c.07,0,.1-.14.1-.29a.91.91,0,0,1,.13-.46,1,1,0,0,1,.37-.36,1.73,1.73,0,0,1,.56-.21,3.85,3.85,0,0,1,.76-.07,2.27,2.27,0,0,0,.7-.11,2.79,2.79,0,0,0,.62-.28,1.66,1.66,0,0,0,.37-.34.53.53,0,0,0,.13-.31s-.08-.07-.25-.11a3,3,0,0,0-.49-.08l-.4,0-.39,0-.17,0-.17-.05-.09-.05L13.31,8a.41.41,0,0,1-.09-.14.46.46,0,0,1,0-.17.19.19,0,0,0,0-.09.4.4,0,0,0-.12-.1,1.32,1.32,0,0,0-.35-.12,2.93,2.93,0,0,0-.61-.05,3.79,3.79,0,0,1-.77-.07,1.67,1.67,0,0,1-.57-.22,1.08,1.08,0,0,1-.36-.36.84.84,0,0,1-.14-.45.86.86,0,0,1,.09-.4l.19-.35.25-.4L11,4.67l.27-.43q.13-.21.23-.4t.14-.33a.75.75,0,0,0,.05-.2,1,1,0,0,0-.09-.4,3,3,0,0,0-.21-.4,4,4,0,0,0-.33-.4.37.37,0,0,1-.07-.4A.32.32,0,0,1,11.35,1.48Z"/></svg>