<svg id="Слой_1" data-name="Слой 1" xmlns="http://www.w3.org/2000/svg" viewBox="0 0 17.59 17.98"><defs><style>.cls-1{fill:#3c3c3c;}</style></defs><title>Contacts3</title><path class="cls-1" d="M16.49,2.94a1.07,1.07,0,0,1,.77.32,1,1,0,0,1,.33.78v9.52a1,1,0,0,1-.33.78,1.07,1.07,0,0,1-.77.32H1.1a1.07,1.07,0,0,1-.77-.32A1,1,0,0,1,0,13.55V4a1,1,0,0,1,.33-.78,1.07,1.07,0,0,1,.77-.32ZM1.1,3.66a.34.34,0,0,0-.26.11A.38.38,0,0,0,.74,4v9.52a.38.38,0,0,0,.1.27.33.33,0,0,0,.26.11H16.49a.33.33,0,0,0,.26-.11.38.38,0,0,0,.1-.27V4a.38.38,0,0,0-.1-.27.34.34,0,0,0-.26-.11Zm.74.74.1,0,.1.05,5.86,4a1.61,1.61,0,0,0,.42.23,1.48,1.48,0,0,0,.94,0,1.6,1.6,0,0,0,.42-.23l5.86-4a.33.33,0,0,1,.5.1.3.3,0,0,1-.09.5l-5.86,4a3.65,3.65,0,0,1-.6.3,2,2,0,0,1-1.41,0,3.63,3.63,0,0,1-.6-.3l-5.86-4a.34.34,0,0,1-.15-.41A.33.33,0,0,1,1.84,4.4Z"/></svg>