<svg id="Слой_1" data-name="Слой 1" xmlns="http://www.w3.org/2000/svg" viewBox="0 0 17.59 18"><defs><style>.cls-1{fill:#3c3c3c;}</style></defs><title>Contacts2</title><path class="cls-1" d="M3.66,2.22a2.12,2.12,0,0,0-1.55.64,2.12,2.12,0,0,0-.64,1.55v.36A.36.36,0,0,1,1.35,5a.33.33,0,0,1-.5,0,.36.36,0,0,1-.11-.27V4.41A2.83,2.83,0,0,1,1.6,2.34a2.81,2.81,0,0,1,2.06-.86H4a.32.32,0,0,1,.27.12.41.41,0,0,1,.09.26.38.38,0,0,1-.09.25A.33.33,0,0,1,4,2.22ZM6.39,3.5A4.79,4.79,0,0,0,4.74,4.95a5,5,0,0,0-.86,2,11.31,11.31,0,0,0-.22,2.24,8.24,8.24,0,0,1-.55,3.36,8.55,8.55,0,0,1-1.55,2.26.34.34,0,0,0-.07.39.33.33,0,0,0,.34.23H15.75a.33.33,0,0,0,.34-.23.34.34,0,0,0-.07-.39,8.53,8.53,0,0,1-1.55-2.26,8.23,8.23,0,0,1-.55-3.36,11.31,11.31,0,0,0-.22-2.24,5,5,0,0,0-.86-2A4.8,4.8,0,0,0,11.2,3.5,5,5,0,0,0,8.79,3,5,5,0,0,0,6.39,3.5Zm4.48.63a3.89,3.89,0,0,1,1.37,1.23A4.39,4.39,0,0,1,13,7.12a10.64,10.64,0,0,1,.2,2.05,8.45,8.45,0,0,0,.52,3.23,9.17,9.17,0,0,0,1.35,2.27H2.52A9.19,9.19,0,0,0,3.87,12.4,8.46,8.46,0,0,0,4.4,9.17a10.6,10.6,0,0,1,.2-2.05,4.39,4.39,0,0,1,.75-1.76A3.88,3.88,0,0,1,6.72,4.13a4.33,4.33,0,0,1,2.08-.46A4.33,4.33,0,0,1,10.87,4.13ZM8.79,0A2.28,2.28,0,0,0,7.22.58,1.67,1.67,0,0,0,6.6,1.85q0,.38.37.36t.37-.36a1.06,1.06,0,0,1,.39-.72A1.47,1.47,0,0,1,8.79.76a1.49,1.49,0,0,1,1.07.37,1,1,0,0,1,.39.73.37.37,0,0,0,.74,0A1.67,1.67,0,0,0,10.37.58,2.28,2.28,0,0,0,8.79,0Zm-1,17.29a1.75,1.75,0,0,0,1,.3,1.75,1.75,0,0,0,1-.3.93.93,0,0,0,.43-.8.36.36,0,1,0-.72,0s-.06.1-.17.21a.84.84,0,0,1-.57.15.84.84,0,0,1-.57-.15q-.17-.15-.17-.21a.32.32,0,0,0-.36-.36.32.32,0,0,0-.36.36A.93.93,0,0,0,7.76,17.3ZM13.93,2.22a2.12,2.12,0,0,1,1.55.64,2.12,2.12,0,0,1,.64,1.55v.36a.36.36,0,0,0,.11.27.33.33,0,0,0,.5,0,.36.36,0,0,0,.11-.27V4.41A2.83,2.83,0,0,0,16,2.34a2.81,2.81,0,0,0-2.06-.86h-.38a.32.32,0,0,0-.27.12.41.41,0,0,0-.09.26.37.37,0,0,0,.09.25.33.33,0,0,0,.27.11Z"/></svg>