<svg id="Слой_1" data-name="Слой 1" xmlns="http://www.w3.org/2000/svg" viewBox="0 0 50 50"><defs><style>.cls-1{fill:#3c3c3c;}</style></defs><title>uslugi-4</title><path class="cls-1" d="M21.83,27.16a10,10,0,0,1-2-.19q-.94-.19-1.87-.47t-1.64-.61q-.8-.33-1.55-.7l-2.58-1.08a8.73,8.73,0,0,0-2.77-.61,9.65,9.65,0,0,0-3.14.38,15.44,15.44,0,0,0-3.89,1.78.7.7,0,0,1-.61.09.9.9,0,0,1-.52-.37.7.7,0,0,1-.09-.61.57.57,0,0,1,.37-.42,16.73,16.73,0,0,1,4.41-2,11.86,11.86,0,0,1,3.66-.42,13.2,13.2,0,0,1,3.09.7,26.39,26.39,0,0,1,2.72,1.17q1.22.56,2.44,1a11.53,11.53,0,0,0,2.63.66,11.13,11.13,0,0,0,3,0,13.87,13.87,0,0,0,3.7-1.17,1,1,0,0,1,.61,0,.59.59,0,0,1,.42.47.87.87,0,0,1,0,.56.9.9,0,0,1-.37.47q-.94.38-1.73.66a7.41,7.41,0,0,1-1.55.38,13.18,13.18,0,0,1-1.45.28A10.29,10.29,0,0,1,21.83,27.16ZM40.67,33a11.26,11.26,0,0,1-2.2-.23,14.68,14.68,0,0,1-2.39-.7,14.28,14.28,0,0,1-2.39-1,18.81,18.81,0,0,1-2.11-1.27.72.72,0,0,1-.33-.52.85.85,0,0,1,.14-.61.72.72,0,0,1,.52-.33.85.85,0,0,1,.61.14,11.21,11.21,0,0,0,1.88,1.17,16.45,16.45,0,0,0,2.16.89,21.26,21.26,0,0,0,2.2.61,9.16,9.16,0,0,0,1.92.23,6.33,6.33,0,0,0,2.58-.52,6.54,6.54,0,0,0,2-1.36,5.85,5.85,0,0,0,1.45-2,6.24,6.24,0,0,0,0-5,5.85,5.85,0,0,0-1.45-2,5.92,5.92,0,0,0-2-1.31,6.88,6.88,0,0,0-2.58-.47,11.35,11.35,0,0,0-1.92.19,15.22,15.22,0,0,0-2.2.56,16.45,16.45,0,0,0-2.16.89,11.21,11.21,0,0,0-1.87,1.17.85.85,0,0,1-.61.14.72.72,0,0,1-.52-.33.85.85,0,0,1-.14-.61.72.72,0,0,1,.33-.52A18.81,18.81,0,0,1,33.69,19a14.28,14.28,0,0,1,2.39-1,14.68,14.68,0,0,1,2.39-.7,11.26,11.26,0,0,1,2.2-.23,7.87,7.87,0,0,1,3.19.66,9.46,9.46,0,0,1,2.63,1.69A9.68,9.68,0,0,1,48.17,22a7.4,7.4,0,0,1,0,6.09,9.68,9.68,0,0,1-1.69,2.58,9.46,9.46,0,0,1-2.62,1.69A7.87,7.87,0,0,1,40.67,33ZM29.42,30.62H31V19.37H29.42Zm2.44,1.59H28.67a.8.8,0,0,1-.84-.84V18.62a.8.8,0,0,1,.84-.84h3.19a.72.72,0,0,1,.52.23.82.82,0,0,1,.23.61V31.37a.82.82,0,0,1-.23.61A.72.72,0,0,1,31.86,32.22Z"/></svg>