<svg id="Слой_1" data-name="Слой 1" xmlns="http://www.w3.org/2000/svg" viewBox="0 0 50 50"><defs><style>.cls-1{fill:#3c3c3c;}</style></defs><title>uslugi-7</title><path class="cls-1" d="M40.63,47.9H9.38a9.06,9.06,0,0,1-6.62-2.73A9,9,0,0,1,0,38.53V9.38A9,9,0,0,1,2.76,2.76,9,9,0,0,1,9.38,0H40.63a9,9,0,0,1,6.62,2.76A9,9,0,0,1,50,9.38V38.53a9.38,9.38,0,0,1-9.37,9.38ZM9.38,2.1A7,7,0,0,0,4.22,4.22,7,7,0,0,0,2.1,9.38V38.53A7.1,7.1,0,0,0,4.22,43.7a7,7,0,0,0,5.15,2.15H40.63a7,7,0,0,0,5.15-2.15,7.1,7.1,0,0,0,2.12-5.18V9.38a7,7,0,0,0-2.12-5.15A7,7,0,0,0,40.63,2.1ZM40.63,43.75H9.38a5,5,0,0,1-3.69-1.54,5,5,0,0,1-1.54-3.69V9.38A5,5,0,0,1,5.69,5.69,5,5,0,0,1,9.38,4.15H40.63a5,5,0,0,1,3.69,1.54,5,5,0,0,1,1.54,3.69V38.53a5.25,5.25,0,0,1-5.22,5.22ZM9.38,6.25a3,3,0,0,0-2.2.93,3,3,0,0,0-.93,2.2V38.53a3,3,0,0,0,.93,2.22,3,3,0,0,0,2.2.9H40.63a3,3,0,0,0,2.2-.9,3,3,0,0,0,.93-2.22V9.38a3,3,0,0,0-.93-2.2,3,3,0,0,0-2.2-.93ZM9,10.33a1,1,0,0,1-.56-.56,1.08,1.08,0,0,1,0-.78,1,1,0,0,1,.22-.34,1.06,1.06,0,0,1,1.46,0,1,1,0,0,1,.22.34,1.08,1.08,0,0,1,0,.78,1,1,0,0,1-.56.56,1.08,1.08,0,0,1-.78,0ZM9,39.5a1.3,1.3,0,0,1-.34-.24,1,1,0,0,1-.22-.34,1.08,1.08,0,0,1,0-.78,1,1,0,0,1,.22-.34,1.06,1.06,0,0,1,1.46,0,1,1,0,0,1,.22.34,1.08,1.08,0,0,1,0,.78,1,1,0,0,1-.22.34,1.3,1.3,0,0,1-.34.24.83.83,0,0,1-.78,0ZM11.47,50a1,1,0,0,1-.76-.32A1,1,0,0,1,10.4,49v-2.1a1,1,0,0,1,.32-.73,1.08,1.08,0,0,1,.76-.29,1,1,0,0,1,.71.29,1,1,0,0,1,.32.73V49a1.09,1.09,0,0,1-1,1ZM25,31.25a10,10,0,0,1-4.05-.83,10.68,10.68,0,0,1-3.32-2.25,10.42,10.42,0,0,1-2.22-3.3,10.12,10.12,0,0,1-.81-4,10.39,10.39,0,0,1,3-7.37,10.68,10.68,0,0,1,3.32-2.25,10.31,10.31,0,0,1,8.11,0,10.68,10.68,0,0,1,3.32,2.25,10.39,10.39,0,0,1,3,7.37,10.12,10.12,0,0,1-.81,4,10.42,10.42,0,0,1-2.22,3.3,10.68,10.68,0,0,1-3.32,2.25A10,10,0,0,1,25,31.25ZM25,12.5a8.34,8.34,0,0,0-8.35,8.35A8.34,8.34,0,0,0,25,29.15a8.34,8.34,0,0,0,8.35-8.3A8.34,8.34,0,0,0,25,12.5ZM21.88,39.6a3.12,3.12,0,0,1-2.2-5.35,3.12,3.12,0,0,1,4.39,0,3.14,3.14,0,0,1-2.2,5.35ZM25,25a4.17,4.17,0,0,1-4.15-4.15,4.05,4.05,0,0,1,1.22-3,4.13,4.13,0,0,1,5.86,0,4.05,4.05,0,0,1,1.22,3A4.17,4.17,0,0,1,25,25ZM21.88,35.4a1,1,0,0,0-.73.32,1.08,1.08,0,0,0-.29.76,1,1,0,0,0,.29.71,1,1,0,0,0,1.46,0,1,1,0,0,0,.29-.71,1.08,1.08,0,0,0-.29-.76A1,1,0,0,0,21.88,35.4ZM25,18.75a2.08,2.08,0,0,0-2.1,2.1,2,2,0,0,0,.61,1.44,2.12,2.12,0,0,0,3,0,2,2,0,0,0,.61-1.44,2.08,2.08,0,0,0-2.1-2.1ZM30.22,37.5H24a1,1,0,0,1-.76-.32,1,1,0,0,1-.32-.71A1.08,1.08,0,0,1,24,35.4h6.25a1,1,0,0,1,.71.32,1,1,0,0,1,.32.76,1.09,1.09,0,0,1-1,1ZM38.53,50a1.09,1.09,0,0,1-1-1v-2.1a1,1,0,0,1,.32-.73,1,1,0,0,1,.71-.29,1.08,1.08,0,0,1,.76.29,1,1,0,0,1,.32.73V49a1,1,0,0,1-.32.71A1,1,0,0,1,38.53,50Zm1.71-39.67a1,1,0,0,1-.56-.56,1.08,1.08,0,0,1,0-.78,1,1,0,0,1,.22-.34,1.06,1.06,0,0,1,1.46,0,1,1,0,0,1,.22.34,1.08,1.08,0,0,1,0,.78,1,1,0,0,1-.56.56,1.08,1.08,0,0,1-.78,0Zm.39,29.27a1.11,1.11,0,0,1-.39-.07,1,1,0,0,1-.34-.22,1.58,1.58,0,0,1-.22-.39,1.08,1.08,0,0,1,0-.78,1,1,0,0,1,.22-.34,1.06,1.06,0,0,1,1.46,0,1,1,0,0,1,.22.34,1.08,1.08,0,0,1,0,.78,1,1,0,0,1-.22.34,1.3,1.3,0,0,1-.34.24A.87.87,0,0,1,40.63,39.6Z"/></svg>