<svg id="Слой_1" data-name="Слой 1" xmlns="http://www.w3.org/2000/svg" viewBox="0 0 50 47.86"><defs><style>.cls-1{fill:#3c3c3c;}</style></defs><title>uslugi-5</title><path class="cls-1" d="M0,38.07a7.53,7.53,0,0,1,4.74-7,19.1,19.1,0,0,1-.31-1.94,18.49,18.49,0,0,1-.1-1.94A20.46,20.46,0,0,1,8,15.55a21.84,21.84,0,0,1,4.13-4.46A20,20,0,0,1,17.43,8a.7.7,0,0,0,0-.15.84.84,0,0,1,0-.2,7.31,7.31,0,0,1,2.24-5.35,7.57,7.57,0,0,1,10.75,0,7.31,7.31,0,0,1,2.24,5.35.84.84,0,0,1,0,.2.7.7,0,0,0,0,.15,20.68,20.68,0,0,1,9.51,7.62A21.23,21.23,0,0,1,44.72,21a20,20,0,0,1,.94,6.12,18.49,18.49,0,0,1-.1,1.94A19.1,19.1,0,0,1,45.26,31a7.58,7.58,0,0,1,2.52,12.39,7.28,7.28,0,0,1-5.38,2.24,7,7,0,0,1-2.75-.54,8.74,8.74,0,0,1-2.29-1.4,20.59,20.59,0,0,1-5.84,3.06,20.34,20.34,0,0,1-13,0,21.44,21.44,0,0,1-5.86-3.06,8.74,8.74,0,0,1-2.29,1.4,7,7,0,0,1-2.75.54,7.31,7.31,0,0,1-5.35-2.24A7.31,7.31,0,0,1,0,38.07Zm3.77-3.85a5.29,5.29,0,0,0-1.58,3.85A5.21,5.21,0,0,0,3.77,41.9a5.21,5.21,0,0,0,3.82,1.58,5.29,5.29,0,0,0,3.85-1.58A5.17,5.17,0,0,0,13,38.07a5.25,5.25,0,0,0-1.61-3.85,5.25,5.25,0,0,0-3.85-1.61A5.17,5.17,0,0,0,3.77,34.23Zm2.75-7.06a14.18,14.18,0,0,0,.1,1.71q.1.84.25,1.66a1.87,1.87,0,0,1,.36-.08l.36,0A7.36,7.36,0,0,1,13,32.67a7.36,7.36,0,0,1,2.24,5.4,6.72,6.72,0,0,1-.33,2.09A9.49,9.49,0,0,1,14.07,42a18.47,18.47,0,0,0,5.17,2.68,18.18,18.18,0,0,0,5.78.94,18,18,0,0,0,5.76-.94A18.56,18.56,0,0,0,35.93,42a8.55,8.55,0,0,1-.82-1.89,7.23,7.23,0,0,1-.31-2.09A7.41,7.41,0,0,1,37,32.67a7.28,7.28,0,0,1,5.38-2.24l.38,0,.38.08q.15-.82.23-1.66t.08-1.71a17.94,17.94,0,0,0-.82-5.4,18.75,18.75,0,0,0-2.29-4.82,18.42,18.42,0,0,0-8.21-6.75,7.79,7.79,0,0,1-2.75,3.62A7.2,7.2,0,0,1,25,15.24a7.28,7.28,0,0,1-4.43-1.43,7.47,7.47,0,0,1-2.7-3.62A18.81,18.81,0,0,0,13.23,13a18,18,0,0,0-3.59,4,18.75,18.75,0,0,0-2.29,4.82A17.94,17.94,0,0,0,6.52,27.17ZM25,2.19a5.29,5.29,0,0,0-3.85,1.58,5.17,5.17,0,0,0-1.61,3.82,5.25,5.25,0,0,0,1.61,3.85A5.25,5.25,0,0,0,25,13a5.17,5.17,0,0,0,3.82-1.61,5.29,5.29,0,0,0,1.58-3.85,5.21,5.21,0,0,0-1.58-3.82A5.21,5.21,0,0,0,25,2.19Zm21.23,32A5.45,5.45,0,0,0,37,38.07a5.17,5.17,0,0,0,1.61,3.82,5.48,5.48,0,0,0,7.7,0,5.17,5.17,0,0,0,1.61-3.82A5.25,5.25,0,0,0,46.25,34.23Z"/></svg>