<svg id="Слой_1" data-name="Слой 1" xmlns="http://www.w3.org/2000/svg" viewBox="0 0 50 49.98"><defs><style>.cls-1{fill:#3c3c3c;}</style></defs><title>uslugi-6</title><path class="cls-1" d="M50,40.61a2.25,2.25,0,0,1-.78,1.64,10.59,10.59,0,0,1-1.61,1.29,8.93,8.93,0,0,1,.24,2.07,2,2,0,0,1-2.22,2.22,9.56,9.56,0,0,1-2.12-.24,8.57,8.57,0,0,1-1.24,1.61,2.1,2.1,0,0,1-3.27,0,8.57,8.57,0,0,1-1.24-1.61,9.56,9.56,0,0,1-2.12.24,2,2,0,0,1-2.22-2.22,8.93,8.93,0,0,1,.24-2.07A10.59,10.59,0,0,1,32,42.25a2.25,2.25,0,0,1-.78-1.64A2.21,2.21,0,0,1,32,39a10.59,10.59,0,0,1,1.61-1.29,9.56,9.56,0,0,1-.24-2.12A2,2,0,0,1,34,34a2.21,2.21,0,0,1,1.64-.59,11.85,11.85,0,0,1,2.12.2,13.49,13.49,0,0,1,.81-1.12,3.75,3.75,0,0,1,1-.93V16.79a13.43,13.43,0,0,0-1.1-5.35,12.66,12.66,0,0,0-3.05-4.37,20.5,20.5,0,0,0-4.61-3.15A15.23,15.23,0,0,0,25,2.2v17.6s0,0,0,.07l0,0S25,20,25,20v.07a.14.14,0,0,0,0,.1q0,.2-.1.34a1.23,1.23,0,0,1-.15.29l-.12.27a.74.74,0,0,0-.07.27,6.25,6.25,0,0,0,6.25,6.2.8.8,0,0,0,.24,0l.29-.1.39-.17.39-.12a.84.84,0,0,1,.49,0,1.91,1.91,0,0,1,.44.24,1,1,0,0,1,.27.44,1.18,1.18,0,0,1,0,.54,8.51,8.51,0,0,1-3,5,8.2,8.2,0,0,1-11.2-.44A8,8,0,0,1,16.66,27a7.85,7.85,0,0,1,1.81-5,9.07,9.07,0,0,1,4.44-3.1V2.2A9.33,9.33,0,0,0,18.3,4a40.81,40.81,0,0,0-3.73,3.12,12.66,12.66,0,0,0-3.05,4.37,13.43,13.43,0,0,0-1.1,5.35V29.53a4.9,4.9,0,0,1,1.66,2.05,18.21,18.21,0,0,1,1.07,2.73,14.53,14.53,0,0,1,3.27.2,2.52,2.52,0,0,1,2.25,1.66,3.13,3.13,0,0,1-.83,3,19.79,19.79,0,0,1-2.39,2.56,15.11,15.11,0,0,1,.63,3.15,2.7,2.7,0,0,1-.93,2.66,2.75,2.75,0,0,1-.66.32,2.38,2.38,0,0,1-.76.12,5.51,5.51,0,0,1-2.29-.56q-1.22-.56-2.05-1a19.78,19.78,0,0,1-2.9,1.34,2.86,2.86,0,0,1-2.86-.17,2.7,2.7,0,0,1-.93-2.66,15.11,15.11,0,0,1,.63-3.15A19.79,19.79,0,0,1,.94,39.12a3.13,3.13,0,0,1-.83-3,2.52,2.52,0,0,1,2.25-1.66,14.53,14.53,0,0,1,3.27-.2A18.21,18.21,0,0,1,6.7,31.58a4.9,4.9,0,0,1,1.66-2.05V16.79a15.74,15.74,0,0,1,1.24-6.17,14.26,14.26,0,0,1,3.54-5.05,39.75,39.75,0,0,1,4.59-3.73A10.78,10.78,0,0,1,23.93,0h0a13.44,13.44,0,0,1,3.64.51,24.18,24.18,0,0,1,3.54,1.29,22.79,22.79,0,0,1,3.17,1.76,18.65,18.65,0,0,1,2.54,2,14.26,14.26,0,0,1,3.54,5.05,15.74,15.74,0,0,1,1.24,6.17V31.58a4.49,4.49,0,0,1,1,.93,11,11,0,0,1,.83,1.12,11.85,11.85,0,0,1,2.12-.2,2,2,0,0,1,2.2,2.17,8.64,8.64,0,0,1-.22,2.12A10.59,10.59,0,0,1,49.22,39,2.21,2.21,0,0,1,50,40.61ZM11.39,35.68a17.09,17.09,0,0,0-1-2.78,4.78,4.78,0,0,0-1-1.61,4.78,4.78,0,0,0-1,1.61,17.09,17.09,0,0,0-1,2.78.92.92,0,0,1-.41.59,1.32,1.32,0,0,1-.71.2l-.71-.07-.76,0A9.58,9.58,0,0,0,3,36.51a2.12,2.12,0,0,0-1,.34,3.64,3.64,0,0,0,1,1.54,19.87,19.87,0,0,0,2.17,2.22,1,1,0,0,1,.34.51.79.79,0,0,1,0,.61,13.08,13.08,0,0,0-.61,2.54,3,3,0,0,0,0,1.56q.34.15,1.56-.37A14.71,14.71,0,0,0,8.8,44.22a.87.87,0,0,1,.56-.2,1.08,1.08,0,0,1,.61.2,17.4,17.4,0,0,0,2.37,1.24q1.2.51,1.54.37t0-1.56a12.25,12.25,0,0,0-.68-2.54,1,1,0,0,1,0-.61,1,1,0,0,1,.34-.51,18.74,18.74,0,0,0,2.17-2.25q1-1.17.9-1.56t-1.49-.37a13.25,13.25,0,0,0-2.66,0,1.32,1.32,0,0,1-.71-.2A.92.92,0,0,1,11.39,35.68Zm19.23-6.05a8.07,8.07,0,0,1-5.78-2.47,7.89,7.89,0,0,1-2.42-5.78,7,7,0,0,0-2.64,2.37,5.83,5.83,0,0,0-1,3.29,6,6,0,0,0,1.83,4.39A6,6,0,0,0,25,33.29a5.76,5.76,0,0,0,3.25-1A7,7,0,0,0,30.62,29.63ZM47.1,41.34a3.62,3.62,0,0,0,.76-.73,5,5,0,0,0-.76-.68,8.39,8.39,0,0,0-1.2-.78A1,1,0,0,1,45.41,38a10.06,10.06,0,0,0,.29-1.39,4.15,4.15,0,0,0,0-1,4.15,4.15,0,0,0-1,0,10.06,10.06,0,0,0-1.39.29,1,1,0,0,1-.68,0,1.11,1.11,0,0,1-.54-.49,9.92,9.92,0,0,0-.76-1.2,3.26,3.26,0,0,0-.71-.76,5,5,0,0,0-.68.76,8.39,8.39,0,0,0-.78,1.2,1.11,1.11,0,0,1-.54.49,1,1,0,0,1-.68,0,10.06,10.06,0,0,0-1.39-.29,4.15,4.15,0,0,0-1,0,4.15,4.15,0,0,0,0,1A10.06,10.06,0,0,0,35.84,38a1,1,0,0,1-.49,1.17,8.39,8.39,0,0,0-1.2.78,5,5,0,0,0-.76.68,3.26,3.26,0,0,0,.76.71q.56.41,1.2.81a.81.81,0,0,1,.46.49,1.09,1.09,0,0,1,0,.68,10.06,10.06,0,0,0-.29,1.39,4.15,4.15,0,0,0,0,1,4.15,4.15,0,0,0,1,0,10.06,10.06,0,0,0,1.39-.29l.17,0,.12,0a1,1,0,0,1,.54.15,1.12,1.12,0,0,1,.39.39,11.73,11.73,0,0,0,.76,1.22,3.16,3.16,0,0,0,.71.78,4.7,4.7,0,0,0,.68-.78,9.68,9.68,0,0,0,.78-1.22,1.22,1.22,0,0,1,.51-.44,1,1,0,0,1,.71,0,10.06,10.06,0,0,0,1.39.29,4.15,4.15,0,0,0,1,0,4.15,4.15,0,0,0,0-1,10.06,10.06,0,0,0-.29-1.39,1.09,1.09,0,0,1,0-.68.81.81,0,0,1,.46-.49A8.39,8.39,0,0,0,47.1,41.34Zm-5-2.17a2,2,0,0,1,.61,1.44,2.1,2.1,0,1,1-4.2,0,2,2,0,0,1,.61-1.44,2.12,2.12,0,0,1,3,0Z"/></svg>