<svg id="Слой_1" data-name="Слой 1" xmlns="http://www.w3.org/2000/svg" viewBox="0 0 50 49.88"><defs><style>.cls-1{fill:#3c3c3c;}</style></defs><title>uslugi-2</title><path class="cls-1" d="M33.35,0a16.18,16.18,0,0,1,6.47,1.32,16.67,16.67,0,0,1,5.3,3.58,17.21,17.21,0,0,1,3.56,5.28A16,16,0,0,1,50,16.66q0,3.46-3.91,9.11a79.32,79.32,0,0,1-9.28,11,78.83,78.83,0,0,1-11,9.23q-5.64,3.87-9.16,3.87A16.57,16.57,0,0,1,4.88,45a17.19,17.19,0,0,1-3.56-5.28A16,16,0,0,1,0,33.27q0-3.51,3.91-9.13A84.46,84.46,0,0,1,24.19,3.9Q29.83,0,33.35,0ZM2.1,33.27a14,14,0,0,0,1.15,5.65,14.77,14.77,0,0,0,3.12,4.6A15.18,15.18,0,0,0,11,46.66a13.81,13.81,0,0,0,5.66,1.17q-.2-.78-.81-3.73t-1.32-7.23q-.71-4.29-1.29-9.52T12.55,16.8q-2.2,2.34-4.1,4.68A53.63,53.63,0,0,0,5.13,26a27,27,0,0,0-2.22,4A8.46,8.46,0,0,0,2.1,33.27Zm13.77-2,1.37.29q1.32.29,4,.63t6.67.68q4,.34,9.42.44,2.25-2.34,4.17-4.72T44.85,24a25.3,25.3,0,0,0,2.25-4.07,8.62,8.62,0,0,0,.81-3.26A14.16,14.16,0,0,0,46.75,11,14.6,14.6,0,0,0,39,3.24a14.13,14.13,0,0,0-5.64-1.14,9.1,9.1,0,0,0-3.71,1A32.7,32.7,0,0,0,25,5.82a60.8,60.8,0,0,0-5.18,4q-2.66,2.29-5.2,4.82,0,2.14.1,4.26t.24,4.21q.15,2.09.37,4.12t.51,4ZM18.7,47.44a17.92,17.92,0,0,0,3.61-1.63A40.26,40.26,0,0,0,26.49,43q2.17-1.63,4.42-3.6t4.44-4.12q-4.15-.15-7.37-.39t-5.62-.54q-2.39-.29-4-.56t-2.29-.41q.39,2.83.83,5.28T17.75,43q.37,1.85.61,3A12.38,12.38,0,0,0,18.7,47.44ZM38.21,5.16a12.55,12.55,0,0,1,4,2.65,12.78,12.78,0,0,1,2.69,4,12,12,0,0,1,1,4.87,11.86,11.86,0,0,1-1,4.85,12.71,12.71,0,0,1-6.64,6.62,11.93,11.93,0,0,1-4.86,1,12.1,12.1,0,0,1-4.88-1,12.79,12.79,0,0,1-4-2.68,12.5,12.5,0,0,1-2.66-3.95,12.1,12.1,0,0,1-1-4.85,12.28,12.28,0,0,1,1-4.87,12.46,12.46,0,0,1,11.52-7.6A12.19,12.19,0,0,1,38.21,5.16Zm-.83,21a10.7,10.7,0,0,0,5.54-5.53,9.81,9.81,0,0,0,.83-4,10,10,0,0,0-.83-4A10.67,10.67,0,0,0,40.67,9.3a10.79,10.79,0,0,0-3.3-2.24,9.89,9.89,0,0,0-4-.83,10.05,10.05,0,0,0-4.05.83,10.56,10.56,0,0,0-5.57,5.55,10,10,0,0,0-.83,4,9.8,9.8,0,0,0,.83,4,10.63,10.63,0,0,0,5.57,5.53,10,10,0,0,0,4.05.83A9.87,9.87,0,0,0,37.38,26.21Zm-5.2-5.41a1,1,0,0,1,.73.22,1,1,0,0,1,.39.71.81.81,0,0,1-.17.73,1,1,0,0,1-.71.39s0,0-.15,0h-.34a7.09,7.09,0,0,1-1.59-.24,4.31,4.31,0,0,1-1.93-1.12,3.83,3.83,0,0,1-1.27-2.58q0-1.36,0-1.41a.92.92,0,0,1,.39-.68,1.1,1.1,0,0,1,.78-.19A.93.93,0,0,1,29,17a1.09,1.09,0,0,1,.2.78,3.58,3.58,0,0,0,.73,2.24,2.15,2.15,0,0,0,1.46.71ZM29.69,10.52a5.36,5.36,0,0,1,1.59-.44,1.89,1.89,0,0,1,1.73.63,2,2,0,0,1,.63,1.75A5.28,5.28,0,0,1,33.2,14a1.12,1.12,0,0,1-.39.39,1,1,0,0,1-.54.15l-.22,0a.76.76,0,0,1-.27-.12,1,1,0,0,1-.51-.61.83.83,0,0,1,.12-.75,4.13,4.13,0,0,0,.15-.56c0-.18,0-.28,0-.32s-.14,0-.32,0a1.52,1.52,0,0,0-.51.19,1.07,1.07,0,0,1-.81.07,1,1,0,0,1-.61-.51,1.06,1.06,0,0,1-.07-.8A1,1,0,0,1,29.69,10.52Zm6.25,6.23a5.36,5.36,0,0,1,1.59-.44,1.89,1.89,0,0,1,1.73.63,2,2,0,0,1,.63,1.75,5.28,5.28,0,0,1-.44,1.56,1.12,1.12,0,0,1-.39.39,1,1,0,0,1-.54.15l-.22,0a.76.76,0,0,1-.27-.12,1,1,0,0,1-.51-.61.83.83,0,0,1,.12-.75,4.17,4.17,0,0,0,.15-.56c0-.18,0-.28,0-.32s-.14,0-.32,0a1.52,1.52,0,0,0-.51.19,1.07,1.07,0,0,1-.81.07,1,1,0,0,1-.61-.51,1.06,1.06,0,0,1-.07-.8A1,1,0,0,1,35.94,16.76Z"/></svg>