<svg id="Слой_1" data-name="Слой 1" xmlns="http://www.w3.org/2000/svg" viewBox="0 0 50 50"><defs><style>.cls-1{fill:#3c3c3c;}</style></defs><title>uslugi-8</title><path class="cls-1" d="M33.35,6.25H16.65a3,3,0,0,1-2.2-.93,3,3,0,0,1-.93-2.2,3,3,0,0,1,.93-2.2A3,3,0,0,1,16.65,0h16.7a3,3,0,0,1,2.2.93,3,3,0,0,1,.93,2.2,3,3,0,0,1-.93,2.2A3,3,0,0,1,33.35,6.25ZM15.94,2.39a1,1,0,0,0-.32.73,1,1,0,0,0,.32.73,1,1,0,0,0,.71.29h16.7a1,1,0,0,0,.71-.29,1,1,0,0,0,.32-.73,1,1,0,0,0-.32-.73,1,1,0,0,0-.71-.29H16.65A1,1,0,0,0,15.94,2.39ZM25,50a7.29,7.29,0,0,1-7.28-7.28V5.22A1.08,1.08,0,0,1,18,4.47a1,1,0,0,1,.73-.32h12.5a1,1,0,0,1,.73.32,1.08,1.08,0,0,1,.29.76v37.5A7.29,7.29,0,0,1,25,50Zm6.25-16.65H18.75A1,1,0,0,1,18,33a1.08,1.08,0,0,1-.29-.76,1,1,0,0,1,.29-.71,1,1,0,0,1,.73-.32h12.5a1,1,0,0,1,.73.32,1,1,0,0,1,.29.71A1.08,1.08,0,0,1,32,33,1,1,0,0,1,31.25,33.35ZM19.78,42.72a5,5,0,0,0,1.54,3.66,5.25,5.25,0,0,0,7.37,0,5,5,0,0,0,1.54-3.66V6.25H19.78Z"/></svg>