<svg id="Слой_1" data-name="Слой 1" xmlns="http://www.w3.org/2000/svg" viewBox="0 0 48.12 48"><defs><style>.cls-1{fill:#3c3c3c;}</style></defs><title>Uslugi_1</title><path class="cls-1" d="M13,12a4.85,4.85,0,0,1,3.55,1.48A4.82,4.82,0,0,1,18,17V29a3,3,0,0,1-3,3,2.64,2.64,0,0,1-.52,0,2.58,2.58,0,0,1-.47-.14V45a2.86,2.86,0,0,1-.89,2.13A2.93,2.93,0,0,1,11,48a2.78,2.78,0,0,1-1.1-.21A4.17,4.17,0,0,1,9,47.25a4.17,4.17,0,0,1-.92.54A2.78,2.78,0,0,1,7,48a2.93,2.93,0,0,1-2.11-.87A2.86,2.86,0,0,1,4,45V31.83A2.52,2.52,0,0,1,3,32a2.89,2.89,0,0,1-2.11-.89A2.88,2.88,0,0,1,0,29V17a4.82,4.82,0,0,1,1.48-3.54A4.84,4.84,0,0,1,5,12Zm3,17V17a2.92,2.92,0,0,0-.87-2.11A2.87,2.87,0,0,0,13,14H5a2.87,2.87,0,0,0-2.14.89A2.92,2.92,0,0,0,2,17V29a1,1,0,0,0,1,1,1,1,0,0,0,1-1V21a.94.94,0,0,1,.31-.68A1,1,0,0,1,5,20a.92.92,0,0,1,.71.3A1,1,0,0,1,6,21V45a1,1,0,0,0,.31.73A.94.94,0,0,0,7,46a1,1,0,0,0,1-1V33a1,1,0,0,1,.28-.68,1,1,0,0,1,1.41,0A1,1,0,0,1,10,33V45a1,1,0,0,0,1,1,.92.92,0,0,0,.7-.3A1,1,0,0,0,12,45V21a1,1,0,0,1,1-1,1,1,0,0,1,.73.3A.94.94,0,0,1,14,21v8a1,1,0,1,0,2,0ZM9,10A4.84,4.84,0,0,1,5.47,8.55,4.82,4.82,0,0,1,4,5,4.82,4.82,0,0,1,5.47,1.48,4.84,4.84,0,0,1,9,0a4.85,4.85,0,0,1,3.55,1.48A4.82,4.82,0,0,1,14,5a4.82,4.82,0,0,1-1.48,3.54A4.85,4.85,0,0,1,9,10ZM6.91,2.91A2.88,2.88,0,0,0,6,5a2.88,2.88,0,0,0,.89,2.11,3,3,0,0,0,4.23,0,2.94,2.94,0,0,0,0-4.22,3,3,0,0,0-4.23,0ZM35.1,14a12.55,12.55,0,0,1,5.05,1A13.14,13.14,0,0,1,47.08,22a12.46,12.46,0,0,1,1,5v4a9.05,9.05,0,0,1-9,9h-8a9.05,9.05,0,0,1-9-9V27a.94.94,0,0,1,.31-.68,1,1,0,0,1,.73-.3h11V15a.94.94,0,0,1,.31-.68A1,1,0,0,1,35.1,14Zm11,13a10.67,10.67,0,0,0-.78-4,11.3,11.3,0,0,0-2.11-3.4A10.66,10.66,0,0,0,40,17.18a10.92,10.92,0,0,0-3.95-1.1V27a1,1,0,0,1-.31.73.94.94,0,0,1-.68.3h-11v3a7.05,7.05,0,0,0,7,7h8a7,7,0,0,0,7-7ZM31.2,42.89a3,3,0,0,1,0,4.24,3,3,0,0,1-4.25,0,3,3,0,1,1,4.25-4.24Zm-1.43,2.84a1,1,0,0,0,.31-.73,1,1,0,0,0-1-1,1,1,0,0,0-.73.3.94.94,0,0,0-.31.68,1,1,0,0,0,1,1A1,1,0,0,0,29.77,45.73Zm13.46-2.84a3,3,0,0,1,0,4.24,3,3,0,0,1-4.25,0,3,3,0,1,1,4.25-4.24ZM41.8,45.73A1,1,0,0,0,42.1,45a1,1,0,0,0-1-1,1,1,0,0,0-.73.3.94.94,0,0,0-.31.68,1,1,0,0,0,1,1A1,1,0,0,0,41.8,45.73Z"/></svg>