<svg id="Слой_1" data-name="Слой 1" xmlns="http://www.w3.org/2000/svg" viewBox="0 0 48.14 48"><defs><style>.cls-1{fill:#3c3c3c;}</style></defs><title>Uslugi_4</title><path class="cls-1" d="M47.57,6.14a.88.88,0,0,1,.47.45,1.11,1.11,0,0,1,.09.63l-2,10a1.08,1.08,0,0,1-.4.61.82.82,0,0,1-.63.19q-.33,0-2.19-.16t-3.45-.45A38.09,38.09,0,0,1,40,22.5q.09,2.25,0,4.31V28a21,21,0,0,1-.31,3.26q-.31,1.9-.68,3.63t-.68,3q-.31,1.24-.35,1.38a1.06,1.06,0,0,1-.35.54,1,1,0,0,1-.63.21,6.78,6.78,0,0,0-4.93,2A6.69,6.69,0,0,0,30.08,47a.92.92,0,0,1-.31.7,1,1,0,0,1-.68.28H19a1,1,0,0,1-1-1A6.69,6.69,0,0,0,16,42.07a6.78,6.78,0,0,0-4.93-2,1,1,0,0,1-.63-.21,1,1,0,0,1-.35-.54q0-.14-.35-1.38t-.68-3q-.38-1.73-.68-3.63A20.9,20.9,0,0,1,8,28V26.81q0-2.06,0-4.31a37.83,37.83,0,0,1,.61-5.11q-1.6.28-3.45.45T3.07,18a.82.82,0,0,1-.66-.19A1.12,1.12,0,0,1,2,17.2l-2-10a1.11,1.11,0,0,1,.09-.63.87.87,0,0,1,.47-.45L2.74,5.06q2-1,4.61-2.09t5.33-2A14.14,14.14,0,0,1,17.07,0a.91.91,0,0,1,.59.21A1.06,1.06,0,0,1,18,.75q0,.09,1.17,1.69T24.07,4Q27.83,4,29,2.44T30.13.75a1.05,1.05,0,0,1,.35-.54A.9.9,0,0,1,31.07,0a14.35,14.35,0,0,1,4.42.94q2.72.94,5.33,2T45.4,5.06Zm-3.24,9.8L46,7.55,42.8,6q-1.9-.89-3.92-1.71T34.95,2.86a15.19,15.19,0,0,0-3.22-.8,9.8,9.8,0,0,1-2.21,2.46Q27.83,6,24.07,6T18.62,4.52a9.78,9.78,0,0,1-2.21-2.46,15.19,15.19,0,0,0-3.22.8q-1.9.66-3.92,1.48T5.35,6L2.13,7.55l1.69,8.39q1.6-.09,3.38-.33a10.69,10.69,0,0,0,2.44-.52,1.13,1.13,0,0,1,.52-.07,1,1,0,0,1,.52.21.86.86,0,0,1,.31.45,1.25,1.25,0,0,1,0,.54A34.13,34.13,0,0,0,10.14,22Q10,24.42,10,26.81V28a26.27,26.27,0,0,0,.71,5.32q.7,3.26,1.08,4.71a8.79,8.79,0,0,1,5.54,2.53A8.63,8.63,0,0,1,20,46h8.13a9.05,9.05,0,0,1,8.22-8l1.06-4.71A25.49,25.49,0,0,0,38.12,28V26.81q0-2.39-.12-4.83a34.3,34.3,0,0,0-.87-5.77,1.24,1.24,0,0,1,0-.54.85.85,0,0,1,.31-.45A1,1,0,0,1,38,15a1.13,1.13,0,0,1,.52.07,10.67,10.67,0,0,0,2.44.52Q42.72,15.84,44.32,15.94ZM28.91,13.17A3.89,3.89,0,0,1,30.08,16a4.63,4.63,0,0,1-.82,2.32,20.9,20.9,0,0,1-1.83,2.53q-1,1.2-1.83,2l-.87.87a.7.7,0,0,1-.31.19,1.35,1.35,0,0,1-.7,0,.7.7,0,0,1-.31-.19l-.87-.87q-.82-.82-1.83-2a20.72,20.72,0,0,1-1.83-2.53A4.62,4.62,0,0,1,18.06,16a4,4,0,0,1,4-4,3.84,3.84,0,0,1,1.06.14,4,4,0,0,1,1,.42,4,4,0,0,1,1-.42,4,4,0,0,1,3.88,1Zm-4.84,8.44a34.59,34.59,0,0,0,2.56-2.93A5.4,5.4,0,0,0,28.06,16a1.94,1.94,0,0,0-.59-1.43A1.9,1.9,0,0,0,26.09,14a2,2,0,0,0-.73.14,2.35,2.35,0,0,0-.63.38.91.91,0,0,1-1.32,0,2.35,2.35,0,0,0-.63-.37A2,2,0,0,0,22,14a1.9,1.9,0,0,0-1.39.59A1.94,1.94,0,0,0,20.08,16a5.39,5.39,0,0,0,1.43,2.65A34.51,34.51,0,0,0,24.07,21.61Z"/></svg>