<svg id="Слой_1" data-name="Слой 1" xmlns="http://www.w3.org/2000/svg" viewBox="0 0 48.12 48"><defs><style>.cls-1{fill:#3c3c3c;}</style></defs><title>Uslugi_2</title><path class="cls-1" d="M43.18,22a4.72,4.72,0,0,1,3.48,1.48A4.81,4.81,0,0,1,48.12,27a4.89,4.89,0,0,1-1.27,3.35A4.69,4.69,0,0,1,43.7,32,19.79,19.79,0,0,1,36.77,43.5a20.51,20.51,0,0,1-5.85,3.3,20.29,20.29,0,0,1-13.72,0,20.51,20.51,0,0,1-5.85-3.3A19.79,19.79,0,0,1,4.42,32a4.69,4.69,0,0,1-3.15-1.62A4.89,4.89,0,0,1,0,27a4.81,4.81,0,0,1,1.46-3.49A4.71,4.71,0,0,1,4.93,22a17.65,17.65,0,0,1,1.5-3.49A22.59,22.59,0,0,1,8.6,15.38a5.34,5.34,0,0,1-.42-1.15A5.09,5.09,0,0,1,8,13a6,6,0,0,1,.23-1.76,14.07,14.07,0,0,1,.47-1.34l.19-.54A1.28,1.28,0,0,0,9,9a1.3,1.3,0,0,0-.09-.35l-.19-.54a14.07,14.07,0,0,1-.47-1.34A6,6,0,0,1,8,5a5.59,5.59,0,0,1,1.2-3.42A4.43,4.43,0,0,1,13,0a8,8,0,0,1,4.21,1.13,12,12,0,0,1,3,2.53A6.64,6.64,0,0,1,22,2.46a4.91,4.91,0,0,1,4.09,0,6.66,6.66,0,0,1,1.76,1.2,12,12,0,0,1,3-2.53A8,8,0,0,1,35.1,0a4.4,4.4,0,0,1,3.78,1.62A5.62,5.62,0,0,1,40.08,5a6.06,6.06,0,0,1-.24,1.76q-.24.77-.47,1.34l-.19.54A1.28,1.28,0,0,0,39.1,9a1.26,1.26,0,0,0,.09.4l.19.54q.23.56.47,1.34A6.06,6.06,0,0,1,40.08,13a5.09,5.09,0,0,1-.14,1.2,5.34,5.34,0,0,1-.42,1.15,22.73,22.73,0,0,1,2.16,3.16A17.7,17.7,0,0,1,43.18,22Zm0,8a2.85,2.85,0,0,0,2.09-.87A3,3,0,0,0,43.09,24l-.23,0a.87.87,0,0,0-.24.07,1,1,0,0,1-.7-.16,1.16,1.16,0,0,1-.47-.59A15,15,0,0,0,40.2,20a18,18,0,0,0-2-3,4,4,0,0,1-1.36.73A5.79,5.79,0,0,1,35.1,18a8.08,8.08,0,0,1-4.21-1.1,11.6,11.6,0,0,1-3-2.51,6.63,6.63,0,0,1-1.76,1.2,4.91,4.91,0,0,1-4.09,0,6.61,6.61,0,0,1-1.76-1.2,11.63,11.63,0,0,1-3,2.51A8.08,8.08,0,0,1,13,18a5.79,5.79,0,0,1-1.79-.26A4,4,0,0,1,9.87,17a17.89,17.89,0,0,0-1.95,3,15,15,0,0,0-1.25,3.33,1.16,1.16,0,0,1-.47.59,1,1,0,0,1-.7.16A.88.88,0,0,0,5.26,24L5,24a2.87,2.87,0,0,0-2.14.89A2.92,2.92,0,0,0,2,27a2.86,2.86,0,0,0,.89,2.13A3,3,0,0,0,5.07,30a1.42,1.42,0,0,1,.75.23.83.83,0,0,1,.42.61,17.6,17.6,0,0,0,2.11,6.07,17.93,17.93,0,0,0,4,4.8,18.35,18.35,0,0,0,5.38,3.16,18.09,18.09,0,0,0,12.69,0,18.37,18.37,0,0,0,5.38-3.16,18,18,0,0,0,4-4.8,17.63,17.63,0,0,0,2.11-6.07,1,1,0,0,1,.35-.63A.86.86,0,0,1,42.9,30ZM10.57,7.36q.19.42.33.84A2.52,2.52,0,0,1,11,9a2.44,2.44,0,0,1-.14.82q-.14.4-.33.82t-.38,1.1A4.2,4.2,0,0,0,10,13a7.25,7.25,0,0,0,.45,1.69Q10.9,16,13,16a6.59,6.59,0,0,0,3.24-.89A8.64,8.64,0,0,0,19,12.75,8.34,8.34,0,0,1,18.3,11,7.62,7.62,0,0,1,18,9a7.37,7.37,0,0,1,.26-2A8.5,8.5,0,0,1,19,5.3a8.66,8.66,0,0,0-2.73-2.39A6.6,6.6,0,0,0,13,2Q10.9,2,10.46,3.33A7.27,7.27,0,0,0,10,5,4.2,4.2,0,0,0,10.2,6.3Q10.38,6.89,10.57,7.36Zm7.57,22.13a6.3,6.3,0,0,0-.54-.75A1.87,1.87,0,0,0,16,28a1.88,1.88,0,0,0-1.55.7,6.22,6.22,0,0,0-.56.75.92.92,0,0,1-.59.49.9.9,0,0,1-.73-.07,1,1,0,0,1-.52-.59,1,1,0,0,1,0-.77l1-1.29A3.43,3.43,0,0,1,16,26,3.49,3.49,0,0,1,19,27.26q1,1.24,1,1.29a1,1,0,0,1,.07.77.92.92,0,0,1-.49.59.84.84,0,0,1-.21.07L19,30a1,1,0,0,1-.52-.14A1.07,1.07,0,0,1,18.14,29.48Zm12.17,6.89A1,1,0,0,1,31,36a.88.88,0,0,1,.7.26,1,1,0,0,1,.35.68.94.94,0,0,1-.21.68A22.76,22.76,0,0,1,30,38.93Q28.29,40,24.06,40t-5.92-1.1a22.62,22.62,0,0,1-1.88-1.29,1,1,0,0,1,.14-1.41,1.11,1.11,0,0,1,.73-.21,1,1,0,0,1,.68.35s.5.31,1.41.84a10.37,10.37,0,0,0,4.84.8A11.87,11.87,0,0,0,30.31,36.38ZM21.24,5.48A5.41,5.41,0,0,0,20.06,9a5.51,5.51,0,0,0,1.17,3.54,3.43,3.43,0,0,0,5.64,0A5.51,5.51,0,0,0,28.05,9a5.42,5.42,0,0,0-1.17-3.52,3.46,3.46,0,0,0-5.64,0ZM32.09,26A3.43,3.43,0,0,1,35,27.26l1,1.29a1,1,0,0,1,0,.77,1,1,0,0,1-.52.59.84.84,0,0,1-.21.07l-.21,0a1.11,1.11,0,0,1-.54-.14.74.74,0,0,1-.35-.37l-.59-.75a1.81,1.81,0,0,0-1.53-.7,1.86,1.86,0,0,0-1.57.7,6.19,6.19,0,0,0-.54.75.92.92,0,0,1-.59.49,1,1,0,0,1-.78-.07.92.92,0,0,1-.49-.59,1,1,0,0,1,.07-.77s.32-.46,1-1.29A3.49,3.49,0,0,1,32.09,26Zm-3-20.72A8.55,8.55,0,0,1,29.82,7a7.4,7.4,0,0,1,.26,2,7.65,7.65,0,0,1-.26,2,8.4,8.4,0,0,1-.68,1.76,8.63,8.63,0,0,0,2.73,2.39A6.59,6.59,0,0,0,35.1,16q2.11,0,2.56-1.31A7.29,7.29,0,0,0,38.11,13a4.22,4.22,0,0,0-.19-1.29,10.27,10.27,0,0,0-.42-1.1l-.28-.82A2.44,2.44,0,0,1,37.07,9a2.52,2.52,0,0,1,.14-.8q.14-.42.28-.8a10.16,10.16,0,0,0,.42-1.1A4.21,4.21,0,0,0,38.11,5a7.31,7.31,0,0,0-.45-1.69Q37.22,2,35.1,2a6.6,6.6,0,0,0-3.24.89A8.65,8.65,0,0,0,29.13,5.3Z"/></svg>