<svg id="Слой_1" data-name="Слой 1" xmlns="http://www.w3.org/2000/svg" viewBox="0 0 48.12 48"><defs><style>.cls-1{fill:#3c3c3c;}</style></defs><title>Uslugi_3</title><path class="cls-1" d="M32.09,0a15.57,15.57,0,0,1,6.23,1.27,16,16,0,0,1,5.1,3.45A16.56,16.56,0,0,1,46.85,9.8,15.41,15.41,0,0,1,48.12,16q0,3.33-3.76,8.77a76.33,76.33,0,0,1-8.93,10.59,75.86,75.86,0,0,1-10.6,8.88Q19.41,48,16,48A15.94,15.94,0,0,1,4.7,43.34a16.55,16.55,0,0,1-3.43-5.09A15.41,15.41,0,0,1,0,32q0-3.37,3.76-8.79A81.28,81.28,0,0,1,23.28,3.75Q28.71,0,32.09,0ZM2,32a13.44,13.44,0,0,0,1.1,5.44,14.22,14.22,0,0,0,3,4.43,14.61,14.61,0,0,0,4.44,3A13.29,13.29,0,0,0,16,46q-.19-.75-.78-3.59t-1.27-7q-.68-4.12-1.25-9.16t-.66-10.15Q10,18.42,8.13,20.67A51.61,51.61,0,0,0,4.93,25,25.94,25.94,0,0,0,2.8,28.9,8.14,8.14,0,0,0,2,32Zm13.25-2,1.32.28q1.27.28,3.83.61t6.41.66q3.85.33,9.07.42,2.16-2.25,4-4.55t3.24-4.38a24.35,24.35,0,0,0,2.16-3.91A8.3,8.3,0,0,0,46.1,16,13.63,13.63,0,0,0,45,10.57a14,14,0,0,0-7.47-7.45A13.6,13.6,0,0,0,32.09,2a8.76,8.76,0,0,0-3.57,1A31.47,31.47,0,0,0,24,5.6a58.51,58.51,0,0,0-5,3.87q-2.56,2.2-5,4.64,0,2.06.09,4.1t.24,4.05q.14,2,.35,4T15.22,30ZM18,45.66a17.25,17.25,0,0,0,3.48-1.57,38.75,38.75,0,0,0,4-2.67q2.09-1.57,4.25-3.47T34,34q-4-.14-7.1-.37t-5.4-.52q-2.3-.28-3.81-.54l-2.21-.4q.38,2.72.8,5.09t.78,4.15q.35,1.78.59,2.91A11.92,11.92,0,0,0,18,45.66ZM36.77,5a12.08,12.08,0,0,1,3.81,2.55,12.3,12.3,0,0,1,2.58,3.82,11.58,11.58,0,0,1,1,4.69,11.41,11.41,0,0,1-1,4.66,12.24,12.24,0,0,1-6.39,6.38,11.48,11.48,0,0,1-4.68,1,11.64,11.64,0,0,1-4.7-1,12.31,12.31,0,0,1-3.83-2.58A12,12,0,0,1,21,20.7,11.64,11.64,0,0,1,20.06,16,11.82,11.82,0,0,1,21,11.34,12,12,0,0,1,32.09,4,11.73,11.73,0,0,1,36.77,5ZM36,25.22A10.3,10.3,0,0,0,41.3,19.9,9.44,9.44,0,0,0,42.1,16a9.61,9.61,0,0,0-.8-3.89A10.27,10.27,0,0,0,39.14,9,10.38,10.38,0,0,0,36,6.8,9.51,9.51,0,0,0,32.09,6a9.67,9.67,0,0,0-3.9.8,10.17,10.17,0,0,0-5.36,5.34A9.6,9.6,0,0,0,22,16a9.44,9.44,0,0,0,.8,3.87,10.23,10.23,0,0,0,5.36,5.32,9.66,9.66,0,0,0,3.9.8A9.5,9.5,0,0,0,36,25.22ZM31,20a.93.93,0,0,1,.7.21,1,1,0,0,1,.38.68.78.78,0,0,1-.16.7,1,1,0,0,1-.68.38s0,0-.14,0h-.33a6.83,6.83,0,0,1-1.53-.23,4.15,4.15,0,0,1-1.86-1.08,3.68,3.68,0,0,1-1.22-2.48q0-1.31,0-1.36a.89.89,0,0,1,.38-.66,1.05,1.05,0,0,1,.75-.19.89.89,0,0,1,.66.38,1,1,0,0,1,.19.75,3.44,3.44,0,0,0,.7,2.16,2.07,2.07,0,0,0,1.41.68Zm-2.4-9.89A5.16,5.16,0,0,1,30.1,9.7a1.82,1.82,0,0,1,1.67.61A1.9,1.9,0,0,1,32.38,12,5.09,5.09,0,0,1,32,13.5a1.08,1.08,0,0,1-.38.38,1,1,0,0,1-.52.14l-.21,0a.73.73,0,0,1-.26-.12.92.92,0,0,1-.49-.59.8.8,0,0,1,.12-.73,4,4,0,0,0,.14-.54c0-.17,0-.27,0-.3s-.13,0-.31,0a1.46,1.46,0,0,0-.49.19,1,1,0,0,1-.78.07.92.92,0,0,1-.59-.49,1,1,0,0,1-.07-.77A1,1,0,0,1,28.57,10.13Zm6,6a5.16,5.16,0,0,1,1.53-.42,1.82,1.82,0,0,1,1.67.61A1.9,1.9,0,0,1,38.39,18,5.09,5.09,0,0,1,38,19.5a1.08,1.08,0,0,1-.38.38,1,1,0,0,1-.52.14l-.21,0a.73.73,0,0,1-.26-.12.92.92,0,0,1-.49-.59.8.8,0,0,1,.12-.73,4,4,0,0,0,.14-.54c0-.17,0-.27,0-.3s-.13,0-.31,0a1.46,1.46,0,0,0-.49.19,1,1,0,0,1-.78.07.92.92,0,0,1-.59-.49,1,1,0,0,1-.07-.77A1,1,0,0,1,34.58,16.13Z"/></svg>